<svg width="14" height="13" viewBox="0 0 14 13" fill="none" xmlns="http://www.w3.org/2000/svg">
<path d="M6.65121 1.01199C6.81244 0.706418 7.25006 0.706418 7.41129 1.01199L9.03399 4.08759C9.09616 4.20543 9.20948 4.28776 9.34077 4.31047L12.7673 4.90335C13.1077 4.96225 13.2429 5.37846 13.0022 5.62622L10.5785 8.11991C10.4857 8.21546 10.4424 8.34867 10.4614 8.48055L10.9563 11.9226C11.0055 12.2645 10.6515 12.5218 10.3414 12.3693L7.22085 10.8349C7.10129 10.7761 6.96121 10.7761 6.84165 10.8349L3.72106 12.3693C3.41102 12.5218 3.05697 12.2645 3.10615 11.9226L3.60115 8.48055C3.62011 8.34867 3.57683 8.21546 3.48397 8.11991L1.06035 5.62622C0.819551 5.37846 0.954787 4.96225 1.29522 4.90335L4.72173 4.31047C4.85302 4.28776 4.96634 4.20543 5.02851 4.08759L6.65121 1.01199Z" fill="#FFCC00"/>
</svg>
