<svg width="122" height="32" viewBox="0 0 122 32" fill="none" xmlns="http://www.w3.org/2000/svg">
<g clip-path="url(#clip0_3420_52)">
<circle cx="16" cy="16" r="16" fill="#1A1A1A"/>
<path d="M15.6 4L16.6855 7.86662C17.5905 11.0903 20.1097 13.6095 23.3334 14.5145L27.2 15.6L23.3334 16.6855C20.1097 17.5905 17.5905 20.1097 16.6855 23.3334L15.6 27.2L14.5145 23.3334C13.6095 20.1097 11.0903 17.5905 7.86662 16.6855L4 15.6L7.86662 14.5145C11.0903 13.6095 13.6095 11.0903 14.5145 7.86662L15.6 4Z" fill="white"/>
</g>
<path d="M55.0039 7.5V21.5H52.2639V12.42L48.3239 18.92H48.0039L44.0639 12.44V21.5H41.3039V7.5H44.1439L48.1639 14.12L52.1639 7.5H55.0039ZM66.0125 20.26C64.9858 21.2733 63.7325 21.78 62.2525 21.78C60.7725 21.78 59.5192 21.2733 58.4925 20.26C57.4792 19.2333 56.9725 17.98 56.9725 16.5C56.9725 15.02 57.4792 13.7733 58.4925 12.76C59.5192 11.7333 60.7725 11.22 62.2525 11.22C63.7325 11.22 64.9858 11.7333 66.0125 12.76C67.0392 13.7733 67.5525 15.02 67.5525 16.5C67.5525 17.98 67.0392 19.2333 66.0125 20.26ZM60.3125 18.48C60.8325 19 61.4792 19.26 62.2525 19.26C63.0258 19.26 63.6725 19 64.1925 18.48C64.7125 17.96 64.9725 17.3 64.9725 16.5C64.9725 15.7 64.7125 15.04 64.1925 14.52C63.6725 14 63.0258 13.74 62.2525 13.74C61.4792 13.74 60.8325 14 60.3125 14.52C59.8058 15.04 59.5525 15.7 59.5525 16.5C59.5525 17.3 59.8058 17.96 60.3125 18.48ZM76.9475 7.5H79.5275V21.5H76.9475V20.32C76.1875 21.2933 75.1075 21.78 73.7075 21.78C72.3608 21.78 71.2075 21.2733 70.2475 20.26C69.3008 19.2333 68.8275 17.98 68.8275 16.5C68.8275 15.02 69.3008 13.7733 70.2475 12.76C71.2075 11.7333 72.3608 11.22 73.7075 11.22C75.1075 11.22 76.1875 11.7067 76.9475 12.68V7.5ZM72.1875 18.54C72.7208 19.06 73.3875 19.32 74.1875 19.32C74.9875 19.32 75.6475 19.06 76.1675 18.54C76.6875 18.0067 76.9475 17.3267 76.9475 16.5C76.9475 15.6733 76.6875 15 76.1675 14.48C75.6475 13.9467 74.9875 13.68 74.1875 13.68C73.3875 13.68 72.7208 13.9467 72.1875 14.48C71.6675 15 71.4075 15.6733 71.4075 16.5C71.4075 17.3267 71.6675 18.0067 72.1875 18.54ZM90.107 7.5H92.867V21.5H90.767L84.767 12.94V21.5H82.007V7.5H84.107L90.107 16.04V7.5ZM97.5241 17.56C97.8707 18.8133 98.8107 19.44 100.344 19.44C101.331 19.44 102.077 19.1067 102.584 18.44L104.664 19.64C103.677 21.0667 102.224 21.78 100.304 21.78C98.6507 21.78 97.3241 21.28 96.3241 20.28C95.3241 19.28 94.8241 18.02 94.8241 16.5C94.8241 14.9933 95.3174 13.74 96.3041 12.74C97.2907 11.7267 98.5574 11.22 100.104 11.22C101.571 11.22 102.777 11.7267 103.724 12.74C104.684 13.7533 105.164 15.0067 105.164 16.5C105.164 16.8333 105.131 17.1867 105.064 17.56H97.5241ZM97.4841 15.56H102.584C102.437 14.88 102.131 14.3733 101.664 14.04C101.211 13.7067 100.691 13.54 100.104 13.54C99.4107 13.54 98.8374 13.72 98.3841 14.08C97.9307 14.4267 97.6307 14.92 97.4841 15.56ZM108.955 14.34C108.955 14.6067 109.128 14.8267 109.475 15C109.835 15.16 110.268 15.3067 110.775 15.44C111.281 15.56 111.788 15.72 112.295 15.92C112.801 16.1067 113.228 16.4267 113.575 16.88C113.935 17.3333 114.115 17.9 114.115 18.58C114.115 19.6067 113.728 20.4 112.955 20.96C112.195 21.5067 111.241 21.78 110.095 21.78C108.041 21.78 106.641 20.9867 105.895 19.4L108.135 18.14C108.428 19.0067 109.081 19.44 110.095 19.44C111.015 19.44 111.475 19.1533 111.475 18.58C111.475 18.3133 111.295 18.1 110.935 17.94C110.588 17.7667 110.161 17.6133 109.655 17.48C109.148 17.3467 108.641 17.18 108.135 16.98C107.628 16.78 107.195 16.4667 106.835 16.04C106.488 15.6 106.315 15.0533 106.315 14.4C106.315 13.4133 106.675 12.64 107.395 12.08C108.128 11.5067 109.035 11.22 110.115 11.22C110.928 11.22 111.668 11.4067 112.335 11.78C113.001 12.14 113.528 12.66 113.915 13.34L111.715 14.54C111.395 13.86 110.861 13.52 110.115 13.52C109.781 13.52 109.501 13.5933 109.275 13.74C109.061 13.8867 108.955 14.0867 108.955 14.34ZM121.201 13.98H118.941V18.14C118.941 18.4867 119.027 18.74 119.201 18.9C119.374 19.06 119.627 19.1533 119.961 19.18C120.294 19.1933 120.707 19.1867 121.201 19.16V21.5C119.427 21.7 118.174 21.5333 117.441 21C116.721 20.4667 116.361 19.5133 116.361 18.14V13.98H114.621V11.5H116.361V9.48L118.941 8.7V11.5H121.201V13.98Z" fill="#1A1A1A"/>
<defs>
<clipPath id="clip0_3420_52">
<rect width="32" height="32" fill="white"/>
</clipPath>
</defs>
</svg>
